# xmcd CD database file
#
# Track frame offsets:
#	150
#	25132
#	47304
#	67300
#	86901
#	107636
#	125299
#	147609
#	161642
#	178443
#	197385
#	210827
#	231705
#	248291
#	273748
#
# Disc length: 3803 seconds
#
# Revision: 0
# Processed by: cddbd v1.5.1PL0 Copyright (c) Steve Scherf et al.
# Submitted via: CDex 1.51
#
DISCID=db0ed90f
DTITLE=Various Artist - The Best Smooth Jazz ...Ever! [CD1)
DYEAR=2004
DGENRE=Jazz
TTITLE0=Bali Run
TTITLE1=Sister Moon
TTITLE2=Is It You
TTITLE3=One Day I'll Fly Away
TTITLE4=Sleepwalk
TTITLE5=Don't Worry Be Happy
TTITLE6=The Beat Goes On
TTITLE7=Mercy Mercy
TTITLE8=Canteloop
TTITLE9=More Than This
TTITLE10=My Funny Valentine
TTITLE11=Just My Imagination (Running Away With Me)
TTITLE12=So Amazing
TTITLE13=Living Inside Your Love
TTITLE14=Fly Me To The Moon (In Other Words)
EXTD=YEAR: 2004
EXTT0=
EXTT1=
EXTT2=
EXTT3=
EXTT4=
EXTT5=
EXTT6=
EXTT7=
EXTT8=
EXTT9=
EXTT10=
EXTT11=
EXTT12=
EXTT13=
EXTT14=
PLAYORDER=
